<?xml version="1.0" encoding="UTF-8" standalone="no"?>
<svg
   xmlns:dc="http://purl.org/dc/elements/1.1/"
   xmlns:cc="http://creativecommons.org/ns#"
   xmlns:rdf="http://www.w3.org/1999/02/22-rdf-syntax-ns#"
   xmlns:svg="http://www.w3.org/2000/svg"
   xmlns="http://www.w3.org/2000/svg"
   viewBox="0 0 889.33331 800"
   height="100%"
   width="100%"
   xml:space="preserve"
   id="svg2"
   version="1.1"><metadata
     id="metadata8"><rdf:RDF><cc:Work
         rdf:about=""><dc:format>image/svg+xml</dc:format><dc:type
           rdf:resource="http://purl.org/dc/dcmitype/StillImage" /></cc:Work></rdf:RDF></metadata><defs
     id="defs6"><clipPath
       id="clipPath50"
       clipPathUnits="userSpaceOnUse"><path
         id="path48"
         d="M 0,600 H 667 V 0 H 0 Z" /></clipPath></defs><g
     transform="matrix(1.3333333,0,0,-1.3333333,0,800)"
     id="g10"><g
       transform="translate(98.5835,164.6299)"
       id="g12"><path
         id="path14"
         style="fill:#028ac9;fill-opacity:1;fill-rule:nonzero;stroke:none"
         d="M 0,0 -5.72,1.596 -1.104,5.332 0.154,3.777 -1.449,2.48 0.537,1.926 Z" /></g><g
       transform="translate(110.3276,161.3535)"
       id="g16"><path
         id="path18"
         style="fill:#028ac9;fill-opacity:1;fill-rule:nonzero;stroke:none"
         d="M 0,0 -7.83,2.185 -7.292,4.11 0.537,1.926 Z m 11.745,-3.277 -7.83,2.184 0.537,1.926 7.83,-2.185 z m 11.744,-3.277 -7.829,2.185 0.537,1.926 7.829,-2.185 z m 11.744,-3.277 -7.829,2.185 0.537,1.925 7.83,-2.184 z m 11.745,-3.276 -7.83,2.184 0.538,1.926 7.829,-2.185 z m 11.745,-3.278 -7.83,2.185 0.537,1.926 7.83,-2.185 z m 11.744,-3.276 -7.829,2.184 0.537,1.926 7.829,-2.184 z m 11.745,-3.277 -7.83,2.184 0.537,1.926 7.83,-2.185 z m 11.744,-3.278 -7.83,2.186 0.538,1.926 7.83,-2.186 z m 11.745,-3.276 -7.83,2.184 0.537,1.926 7.83,-2.184 z m 11.744,-3.278 -7.829,2.185 0.537,1.926 7.829,-2.185 z m 11.745,-3.276 -7.83,2.185 0.537,1.925 7.83,-2.184 z m 11.744,-3.277 -7.83,2.184 0.538,1.926 7.829,-2.184 z m 11.745,-3.277 -7.83,2.185 0.537,1.926 7.83,-2.185 z m 11.744,-3.277 -7.829,2.185 0.537,1.925 7.829,-2.184 z m 11.745,-3.276 -7.83,2.184 0.537,1.926 7.83,-2.185 z m 11.745,-3.278 -7.83,2.185 0.537,1.926 7.83,-2.185 z m 11.744,-3.277 -7.83,2.185 0.537,1.925 7.83,-2.184 z m 11.744,-3.276 -7.829,2.184 0.537,1.926 7.829,-2.185 z m 11.745,-3.278 -7.83,2.185 0.538,1.926 7.829,-2.185 z m 11.744,-3.276 -7.829,2.184 0.537,1.926 7.829,-2.184 z m 11.745,-3.277 -7.83,2.184 0.537,1.926 7.83,-2.185 z" /></g><g
       transform="translate(367.0078,89.7354)"
       id="g20"><path
         id="path22"
         style="fill:#028ac9;fill-opacity:1;fill-rule:nonzero;stroke:none"
         d="m 0,0 -6.13,1.711 0.537,1.926 1.575,-0.44 -0.781,1.438 1.756,0.955 z" /></g><g
       transform="translate(260.8784,280.5986)"
       id="g24"><path
         id="path26"
         style="fill:#028ac9;fill-opacity:1;fill-rule:nonzero;stroke:none"
         d="m 0,0 -3.897,7.163 1.756,0.955 3.898,-7.163 z m 5.846,-10.744 -3.897,7.163 1.757,0.955 3.897,-7.163 z m 5.846,-10.744 -3.898,7.163 1.757,0.955 3.898,-7.163 z m 5.846,-10.743 -3.897,7.162 1.756,0.955 3.898,-7.162 z m 5.846,-10.745 -3.897,7.163 1.757,0.955 3.897,-7.163 z m 5.846,-10.744 -3.897,7.162 1.756,0.955 3.898,-7.162 z m 5.846,-10.744 -3.897,7.163 1.757,0.955 3.897,-7.163 z m 5.846,-10.744 -3.898,7.163 1.757,0.955 3.898,-7.163 z m 5.846,-10.744 -3.897,7.163 1.756,0.955 3.898,-7.163 z m 5.846,-10.743 -3.897,7.162 1.757,0.955 3.897,-7.162 z m 5.846,-10.744 -3.897,7.162 1.756,0.955 3.898,-7.162 z m 5.846,-10.745 -3.897,7.163 1.757,0.956 3.897,-7.164 z m 5.846,-10.744 -3.898,7.163 1.757,0.955 3.898,-7.163 z m 5.847,-10.744 -3.898,7.163 1.756,0.955 3.897,-7.163 z m 5.845,-10.744 -3.897,7.163 1.756,0.955 3.897,-7.163 z m 5.845,-10.743 -3.896,7.162 1.757,0.955 3.897,-7.162 z m 5.848,-10.744 -3.898,7.162 1.756,0.955 3.897,-7.162 z m 5.845,-10.744 -3.897,7.163 1.756,0.955 3.897,-7.163 z" /></g><g
       transform="translate(255.0322,291.3428)"
       id="g28"><path
         id="path30"
         style="fill:#028ac9;fill-opacity:1;fill-rule:nonzero;stroke:none"
         d="M 0,0 -1.338,2.458 -3.514,0.697 -4.771,2.252 -0.729,5.524 1.757,0.955 Z" /></g><g
       transform="translate(242.1646,284.4717)"
       id="g32"><path
         id="path34"
         style="fill:#028ac9;fill-opacity:1;fill-rule:nonzero;stroke:none"
         d="M 0,0 -1.258,1.555 4.978,6.601 6.236,5.046 Z m -9.354,-7.57 -1.258,1.554 6.236,5.047 1.258,-1.554 z m -9.354,-7.57 -1.258,1.555 6.236,5.047 1.258,-1.555 z m -9.354,-7.569 -1.258,1.555 6.237,5.047 1.257,-1.555 z m -9.354,-7.569 -1.258,1.554 6.236,5.047 1.258,-1.554 z m -9.354,-7.57 -1.257,1.555 6.235,5.046 1.258,-1.555 z m -9.354,-7.569 -1.257,1.555 6.235,5.046 1.258,-1.555 z m -9.354,-7.569 -1.257,1.554 6.235,5.046 1.258,-1.554 z m -9.354,-7.57 -1.257,1.555 6.235,5.046 1.258,-1.555 z m -9.354,-7.569 -1.257,1.555 6.236,5.046 1.258,-1.555 z m -9.354,-7.569 -1.257,1.554 6.236,5.046 1.258,-1.554 z m -9.353,-7.571 -1.258,1.555 6.236,5.047 1.258,-1.555 z m -9.354,-7.569 -1.258,1.555 6.236,5.047 1.258,-1.555 z m -9.354,-7.569 -1.258,1.554 6.236,5.047 1.258,-1.554 z m -9.354,-7.57 -1.258,1.555 6.236,5.047 1.258,-1.555 z m -9.354,-7.569 -1.258,1.555 6.236,5.046 1.258,-1.555 z" /></g><g
       transform="translate(539.9775,465.5879)"
       id="g36"><path
         id="path38"
         style="fill:#028ac9;fill-opacity:1;fill-rule:nonzero;stroke:none"
         d="M 0,0 -0.083,1.153 -0.321,0.752 -2.04,1.775 1.46,7.656 1.994,0.142 Z m -6.457,-9.56 -1.719,1.022 4.091,6.875 1.719,-1.022 z m 7.311,-2.41 -0.57,7.979 1.994,0.143 0.57,-7.98 z m -13.447,-7.903 -1.719,1.023 4.09,6.875 1.719,-1.023 z m 14.299,-4.067 -0.568,7.981 1.994,0.142 0.568,-7.981 z m -20.435,-6.245 -1.719,1.022 4.091,6.875 1.718,-1.022 z m 21.288,-5.724 -0.569,7.979 1.994,0.142 0.569,-7.979 z m -27.424,-4.589 -1.719,1.023 4.091,6.875 1.719,-1.023 z m 28.277,-7.381 -0.569,7.98 1.994,0.142 0.569,-7.98 z m -34.414,-2.931 -1.719,1.022 4.091,6.875 1.719,-1.022 z m 35.267,-9.039 -0.569,7.98 1.994,0.142 0.569,-7.98 z m -41.403,-1.274 -1.718,1.023 4.09,6.875 1.719,-1.023 z m -156.285,-2.406 -1.506,1.316 5.998,6.859 0.809,-1.047 -0.775,-0.599 0.671,-0.587 z m 11.028,-3.607 -4.875,6.343 1.586,1.219 4.875,-6.343 z m 139.122,-4.299 -1.719,1.022 4.091,6.875 1.718,-1.022 z m 48.39,-0.383 -0.568,7.979 1.994,0.142 0.568,-7.979 z m -206.44,-0.744 -1.506,1.316 5.267,6.022 1.505,-1.316 z m 26.24,-4.089 -4.874,6.343 1.586,1.219 4.874,-6.343 z m -34.141,-4.944 -1.505,1.317 5.266,6.022 1.506,-1.317 z m 159.814,-0.153 -1.719,1.023 4.091,6.875 1.719,-1.023 z m 55.381,-2.04 -0.569,7.98 1.994,0.142 0.569,-7.98 z m -173.742,-2.378 -4.875,6.344 1.586,1.218 4.875,-6.343 z m -49.353,-4.461 -1.505,1.316 5.266,6.022 1.506,-1.316 z m 161.578,-1.433 -1.719,1.022 4.091,6.875 1.719,-1.022 z m -104.912,-3.62 -4.875,6.343 1.586,1.219 4.875,-6.343 z m 167.281,-0.078 -0.568,7.98 1.994,0.142 0.568,-7.979 z m -231.847,-3.902 -1.506,1.317 5.267,6.022 1.506,-1.317 z m 163.342,-2.713 -1.718,1.023 4.09,6.875 1.719,-1.023 z m -91.464,-2.822 -4.875,6.343 1.586,1.219 4.875,-6.343 z m 160.822,-2.532 -0.569,7.979 1.995,0.143 0.568,-7.98 z m -240.601,-0.965 -1.505,1.317 5.267,6.021 1.505,-1.316 z m 165.107,-3.993 -1.719,1.022 4.091,6.875 1.718,-1.022 z m -78.015,-2.024 -4.875,6.343 1.586,1.219 4.875,-6.344 z m -94.991,-3.016 -1.506,1.317 5.267,6.021 1.505,-1.316 z m 249.353,-1.972 -0.568,7.98 1.994,0.142 0.568,-7.98 z m -82.483,-3.301 -1.719,1.023 4.091,6.875 1.719,-1.023 z m -64.567,-1.226 -4.875,6.343 1.586,1.219 4.875,-6.343 z m -110.204,-2.533 -1.505,1.316 5.266,6.022 1.506,-1.316 z m 258.107,-4.91 -0.569,7.98 1.995,0.143 0.568,-7.981 z m -89.473,-1.643 -1.719,1.022 4.091,6.875 1.719,-1.022 z m -51.117,-0.429 -4.875,6.343 1.586,1.219 4.875,-6.343 z m -125.417,-2.051 -1.505,1.317 5.267,6.021 1.505,-1.316 z m 132.729,-7.463 -4.875,6.343 1.586,1.219 4.875,-6.344 z m 37.669,-0.37 -1.718,1.022 4.091,6.876 1.718,-1.023 z m 96.462,-0.014 -0.569,7.98 1.994,0.143 0.569,-7.98 z m -274.76,-1.185 -1.506,1.316 5.267,6.022 1.506,-1.317 z m 147.942,-7.946 -4.875,6.343 1.586,1.219 4.875,-6.343 z m -155.842,-1.087 -1.506,1.316 5.267,6.022 1.506,-1.316 z m 180.063,-0.081 -1.719,1.023 4.091,6.875 1.719,-1.023 z m 103.45,-1.669 -0.568,7.979 1.994,0.142 0.568,-7.98 z m -120.359,-6.678 -4.875,6.344 1.586,1.218 4.875,-6.343 z m -171.054,-0.604 -1.506,1.316 5.267,6.022 1.505,-1.317 z m 181.826,-1.361 -1.719,1.022 4.091,6.875 1.719,-1.022 z m 110.439,-3.328 -0.568,7.98 1.994,0.142 0.569,-7.98 z m -126.037,-1.84 -0.033,2 7.998,0.131 0.033,-2 z m -11.999,-0.195 -0.033,2 7.999,0.131 0.033,-2 z m -11.998,-0.196 -0.033,2 7.999,0.131 0.033,-2 z m -11.999,-0.195 -0.033,2 7.999,0.131 0.033,-2 z m -11.998,-0.195 -0.033,2 7.999,0.131 0.033,-2 z m -11.998,-0.196 -0.033,2 7.999,0.131 0.033,-2 z m -11.999,-0.195 -0.033,2 7.999,0.131 0.033,-2 z m -11.998,-0.195 -0.033,2 7.999,0.131 0.033,-2 z m -11.999,-0.195 -0.032,2 7.998,0.13 0.033,-2 z m -11.998,-0.195 -0.033,2 7.999,0.13 0.033,-2 z m -11.999,-0.195 -0.032,2 7.999,0.13 0.032,-2 z m -11.998,-0.195 -0.032,2 7.999,0.129 0.032,-2 z m -11.999,-0.196 -0.032,2 7.999,0.13 0.032,-2 z m -11.998,-0.195 -0.032,2 7.999,0.13 0.032,-2 z m -11.998,-0.195 -0.032,2 7.998,0.129 0.032,-2 z m -9.138,-0.149 6.748,7.716 1.506,-1.316 -3.785,-4.328 0.637,0.011 0.032,-2 z m 194.047,-3.443 -6.166,5.096 0.253,0.306 -3.754,4.885 1.586,1.219 2.496,-3.248 0.488,0.821 1.719,-1.024 -1.064,-1.789 5.715,-4.725 z m 109.96,-3.805 -0.569,7.981 1.994,0.142 0.569,-7.98 z m -100.711,-3.842 -6.166,5.098 1.273,1.541 6.166,-5.098 z m 9.249,-7.645 -6.166,5.097 1.273,1.541 6.166,-5.097 z m 92.314,-0.482 -0.568,7.98 1.994,0.142 0.569,-7.979 z m -83.065,-7.164 -6.166,5.098 1.273,1.541 6.166,-5.098 z m 83.918,-4.805 -0.568,7.979 1.994,0.143 0.568,-7.98 z m -74.669,-2.84 -6.166,5.097 1.273,1.541 6.167,-5.097 z m 9.249,-7.646 -6.166,5.097 1.274,1.541 6.166,-5.097 z m 66.274,-1.484 -0.569,7.979 1.994,0.143 0.569,-7.98 z m -57.025,-6.161 -6.166,5.096 1.274,1.541 6.166,-5.096 z m 57.877,-5.809 -0.568,7.98 1.994,0.142 0.568,-7.979 z m -48.628,-1.837 -6.166,5.097 1.274,1.541 6.166,-5.097 z m 9.249,-7.645 -6.166,5.096 1.274,1.541 6.166,-5.096 z m 40.232,-2.488 -0.569,7.98 1.994,0.143 0.569,-7.98 z m -30.983,-5.158 -6.166,5.097 1.274,1.541 6.166,-5.097 z m 31.836,-6.811 -0.568,7.979 1.994,0.143 0.568,-7.98 z m -22.587,-0.835 -6.166,5.097 1.274,1.541 6.166,-5.097 z m 9.249,-7.646 -6.166,5.098 1.274,1.541 6.166,-5.098 z m 14.191,-3.489 -0.569,7.979 1.994,0.143 0.569,-7.979 z m -4.942,-4.156 -6.166,5.097 1.274,1.541 6.166,-5.097 z m 7.697,-6.363 -4.614,3.815 1.274,1.541 1.011,-0.836 -0.142,2.009 1.994,0.142 z" /></g><g
       transform="translate(521.4668,466.1387)"
       id="g40"><path
         id="path42"
         style="fill:#028ac9;fill-opacity:1;fill-rule:nonzero;stroke:none"
         d="M 0,0 -0.617,1.902 4.224,3.47 4.841,1.568 Z m -11.416,-3.698 -0.617,1.903 7.61,2.465 0.617,-1.902 z m -11.416,-3.697 -0.617,1.902 7.61,2.465 0.617,-1.902 z m -11.417,-3.698 -0.617,1.903 7.611,2.465 0.617,-1.902 z m -11.417,-3.697 -0.615,1.902 7.611,2.465 0.615,-1.902 z m -11.415,-3.698 -0.617,1.903 7.611,2.465 0.617,-1.902 z m -11.416,-3.697 -0.617,1.902 7.61,2.465 0.617,-1.902 z m -11.416,-3.698 -0.617,1.903 7.61,2.465 0.617,-1.902 z m -11.416,-3.697 -0.617,1.902 7.61,2.465 0.617,-1.902 z m -11.416,-3.698 -0.617,1.903 7.61,2.465 0.617,-1.902 z m -11.416,-3.697 -0.617,1.902 7.61,2.465 0.617,-1.902 z m -11.417,-3.698 -0.617,1.902 7.611,2.466 0.617,-1.903 z m -11.417,-3.697 -0.615,1.902 7.611,2.465 0.615,-1.902 z m -11.415,-3.698 -0.617,1.902 7.611,2.466 0.617,-1.903 z m -11.416,-3.697 -0.617,1.902 7.61,2.465 0.617,-1.902 z" /></g><g
       id="g44"><g
         clip-path="url(#clipPath50)"
         id="g46"><g
           transform="translate(352.501,366.1694)"
           id="g52"><path
             id="path54"
             style="fill:#00A0EA;fill-opacity:1;fill-rule:nonzero;stroke:none"
             d="m 0,0 c -24.261,0 -43.999,19.737 -43.999,43.998 0,24.261 19.738,43.999 43.999,43.999 24.261,0 43.998,-19.738 43.998,-43.999 C 43.998,19.737 24.261,0 0,0" /></g><g
           transform="translate(352.501,455.6665)"
           id="g56"><path
             id="path58"
             style="fill:#028ac9;fill-opacity:1;fill-rule:nonzero;stroke:none"
             d="m 0,0 c -25.127,0 -45.499,-20.37 -45.499,-45.499 0,-25.128 20.372,-45.498 45.499,-45.498 25.129,0 45.498,20.37 45.498,45.498 C 45.498,-20.37 25.129,0 0,0 m 0,-3 c 23.434,0 42.498,-19.065 42.498,-42.499 0,-23.434 -19.064,-42.498 -42.498,-42.498 -23.434,0 -42.499,19.064 -42.499,42.498 C -42.499,-22.065 -23.434,-3 0,-3" /></g><g
           transform="translate(345.3701,393.7964)"
           id="g60"><path
             id="path62"
             style="fill:#00A0EA;fill-opacity:1;fill-rule:nonzero;stroke:none"
             d="M 0,0 -14.729,-4.364 V 33.12 l 14.694,4.353 13.955,-4.652 15.902,4.387 V -0.843 L 13.991,-4.664 Z" /></g><g
           transform="translate(376.1924,432.3179)"
           id="g64"><path
             id="path66"
             style="fill:#028ac9;fill-opacity:1;fill-rule:nonzero;stroke:none"
             d="M 0,0 -16.875,-4.655 -30.84,0 -46.551,-4.655 v -39.57 l 15.711,4.656 13.965,-4.656 L 0,-40.151 Z m -30.875,-2.097 13.367,-4.456 0.578,-0.192 0.587,0.162 L -2,-2.626 v -35.951 l -14.787,-3.569 -13.42,4.474 -0.598,0.199 -0.603,-0.178 -13.143,-3.895 v 35.398 z" /></g><path
           id="path68"
           style="fill:#028ac9;fill-opacity:1;fill-rule:evenodd;stroke:none"
           d="m 345.353,393.784 h -0.582 v 37.967 h 0.582 z" /><path
           id="path70"
           style="fill:#028ac9;fill-opacity:1;fill-rule:evenodd;stroke:none"
           d="m 359.755,388.401 h -0.437 v 38.404 h 0.437 z" /><g
           transform="translate(363.0576,408.9019)"
           id="g72"><path
             id="path74"
             style="fill:#028ac9;fill-opacity:1;fill-rule:evenodd;stroke:none"
             d="m 0,0 c 1.51,-0.047 2.66,-0.285 2.66,-0.571 0,-0.321 -1.432,-0.583 -3.199,-0.583 -1.768,0 -3.201,0.262 -3.201,0.583 0,0.286 1.152,0.524 2.66,0.571 -1.49,1.612 -5.568,6.271 -5.568,9.028 0,3.376 2.734,6.111 6.109,6.111 3.375,0 6.109,-2.735 6.109,-6.111 C 5.57,6.271 1.492,1.612 0,0" /></g><g
           transform="translate(365.7178,418.1499)"
           id="g76"><path
             id="path78"
             style="fill:#00A0EA;fill-opacity:1;fill-rule:evenodd;stroke:none"
             d="m 0,0 c 0,-1.728 -1.399,-3.129 -3.127,-3.129 -1.727,0 -3.127,1.401 -3.127,3.129 0,1.728 1.4,3.127 3.127,3.127 C -1.399,3.127 0,1.728 0,0" /></g><g
           transform="translate(435.666,261.166)"
           id="g80"><path
             id="path82"
             style="fill:#00A0EA;fill-opacity:1;fill-rule:nonzero;stroke:none"
             d="m 0,0 c -20.31,0 -36.833,16.523 -36.833,36.833 0,20.31 16.523,36.834 36.833,36.834 20.311,0 36.834,-16.524 36.834,-36.834 C 36.834,16.523 20.311,0 0,0" /></g><g
           transform="translate(435.666,336.3325)"
           id="g84"><path
             id="path86"
             style="fill:#028ac9;fill-opacity:1;fill-rule:nonzero;stroke:none"
             d="m 0,0 c -21.171,0 -38.333,-17.163 -38.333,-38.333 0,-21.171 17.162,-38.334 38.333,-38.334 21.172,0 38.334,17.163 38.334,38.334 C 38.334,-17.163 21.172,0 0,0 m 0,-3 c 19.483,0 35.334,-15.851 35.334,-35.333 0,-19.483 -15.851,-35.334 -35.334,-35.334 -19.482,0 -35.333,15.851 -35.333,35.334 C -35.333,-18.851 -19.482,-3 0,-3" /></g><g
           transform="translate(440.3896,319.623)"
           id="g88"><path
             id="path90"
             style="fill:#028ac9;fill-opacity:1;fill-rule:nonzero;stroke:none"
             d="M 0,0 H -22.854 V -37.972 H 6.153 v 31.79 z M -0.831,-2 4.153,-7.007 V -35.972 H -20.854 V -2 Z" /></g><g
           transform="translate(426.2861,277.4014)"
           id="g92"><path
             id="path94"
             style="fill:#00A0EA;fill-opacity:1;fill-rule:evenodd;stroke:none"
             d="m 0,0 v 35.972 h 21.437 l 5.57,-5.595 V 0 Z" /></g><g
           transform="translate(448.1396,314.373)"
           id="g96"><path
             id="path98"
             style="fill:#028ac9;fill-opacity:1;fill-rule:nonzero;stroke:none"
             d="M 0,0 H -22.854 V -37.972 H 6.153 v 31.79 z M -0.831,-2 4.153,-7.007 V -35.972 H -20.854 V -2 Z" /></g><path
           id="path100"
           style="fill:#028ac9;fill-opacity:1;fill-rule:evenodd;stroke:none"
           d="m 431.083,306.667 h 17 v -1 h -17 z m 5,-3 h 12 v -1 h -12 z m 0,-3 h 12 v -1 h -12 z m -5,-5 h 17 v -1 h -17 z m 5,-3 h 12 v -1 h -12 z m 0,-3 h 12 v -1 h -12 z m 0,-3 h 12 v -1 h -12 z m 0,-3 h 12 v -1 h -12 z" /><g
           transform="translate(251,265.499)"
           id="g102"><path
             id="path104"
             style="fill:#00A0EA;fill-opacity:1;fill-rule:nonzero;stroke:none"
             d="M 0,0 C -15.715,0 -28.5,12.785 -28.5,28.5 -28.5,44.215 -15.715,57 0,57 15.715,57 28.5,44.215 28.5,28.5 28.5,12.785 15.715,0 0,0" /></g><g
           transform="translate(251,323.999)"
           id="g106"><path
             id="path108"
             style="fill:#028ac9;fill-opacity:1;fill-rule:nonzero;stroke:none"
             d="m 0,0 c -16.569,0 -30,-13.431 -30,-30 0,-16.568 13.431,-30 30,-30 16.568,0 30,13.432 30,30 C 30,-13.431 16.568,0 0,0 m 0,-3 c 14.888,0 27,-12.112 27,-27 0,-14.888 -12.112,-27 -27,-27 -14.888,0 -27,12.112 -27,27 0,14.888 12.112,27 27,27" /></g><g
           transform="translate(237.2842,283.3545)"
           id="g110"><path
             id="path112"
             style="fill:#028ac9;fill-opacity:1;fill-rule:evenodd;stroke:none"
             d="m 0,0 c -0.812,0.664 -1.219,1.598 -1.219,2.801 v 3.551 c 0,0.812 -0.246,1.392 -0.738,1.74 -0.492,0.347 -1.207,0.521 -2.145,0.521 v 1.653 c 1.016,0.015 1.75,0.203 2.204,0.562 0.453,0.36 0.679,0.914 0.679,1.664 v 3.586 c 0,1.211 0.422,2.152 1.266,2.824 0.844,0.672 1.976,1.008 3.398,1.008 V 18.281 C 1.648,18.234 0.75,17.457 0.75,15.949 V 12.492 C 0.75,10.813 -0.121,9.82 -1.863,9.516 V 9.375 C -0.121,9.07 0.75,8.078 0.75,6.398 V 2.918 C 0.75,2.121 0.979,1.543 1.436,1.184 1.893,0.824 2.563,0.637 3.445,0.621 V -1.02 C 1.961,-1.004 0.812,-0.664 0,0 M 6.901,6.838 C 6.273,6.838 5.794,7.029 5.46,7.414 5.126,7.798 4.959,8.332 4.959,9.018 c 0,0.709 0.166,1.248 0.496,1.618 0.332,0.368 0.814,0.553 1.446,0.553 0.616,0 1.093,-0.181 1.433,-0.544 C 8.674,10.28 8.844,9.738 8.844,9.018 8.844,8.32 8.676,7.783 8.338,7.405 8.001,7.027 7.521,6.838 6.901,6.838 m 6.858,0 c -0.627,0 -1.108,0.191 -1.442,0.576 -0.334,0.384 -0.501,0.918 -0.501,1.604 0,0.709 0.166,1.248 0.497,1.618 0.332,0.368 0.813,0.553 1.446,0.553 0.615,0 1.093,-0.181 1.432,-0.544 0.34,-0.365 0.51,-0.907 0.51,-1.627 0,-0.698 -0.168,-1.235 -0.506,-1.613 C 14.859,7.027 14.38,6.838 13.759,6.838 m 6.857,0 c -0.627,0 -1.107,0.191 -1.441,0.576 -0.334,0.384 -0.501,0.918 -0.501,1.604 0,0.709 0.166,1.248 0.496,1.618 0.332,0.368 0.813,0.553 1.446,0.553 0.615,0 1.093,-0.181 1.433,-0.544 0.34,-0.365 0.51,-0.907 0.51,-1.627 0,-0.698 -0.168,-1.235 -0.506,-1.613 C 21.717,7.027 21.237,6.838 20.616,6.838 m 9.056,1.254 C 29.18,7.744 28.934,7.164 28.934,6.352 V 2.801 c 0,-1.196 -0.401,-2.127 -1.202,-2.795 -0.8,-0.668 -1.943,-1.01 -3.427,-1.026 v 1.641 c 0.867,0.016 1.527,0.203 1.98,0.563 0.453,0.359 0.68,0.937 0.68,1.734 v 3.48 c 0,0.891 0.215,1.571 0.644,2.04 0.43,0.468 1.086,0.781 1.969,0.937 v 0.141 c -1.742,0.304 -2.613,1.297 -2.613,2.976 v 3.457 c 0,1.508 -0.887,2.285 -2.66,2.332 v 1.629 c 1.437,0 2.568,-0.34 3.392,-1.019 0.824,-0.68 1.237,-1.618 1.237,-2.813 v -3.586 c 0,-0.758 0.23,-1.314 0.691,-1.67 0.461,-0.355 1.199,-0.541 2.215,-0.556 V 8.613 c -0.953,0 -1.676,-0.174 -2.168,-0.521" /></g><g
           transform="translate(559.333,138.499)"
           id="g114"><path
             id="path116"
             style="fill:#00A0EA;fill-opacity:1;fill-rule:evenodd;stroke:none"
             d="m 0,0 c -28.581,0 -51.833,23.253 -51.833,51.834 0,28.581 23.252,51.833 51.833,51.833 28.581,0 51.834,-23.252 51.834,-51.833 C 51.834,23.253 28.581,0 0,0" /></g><g
           transform="translate(559.333,243.666)"
           id="g118"><path
             id="path120"
             style="fill:#028ac9;fill-opacity:1;fill-rule:nonzero;stroke:none"
             d="m 0,0 c -29.455,0 -53.333,-23.878 -53.333,-53.333 0,-29.456 23.878,-53.334 53.333,-53.334 29.456,0 53.334,23.878 53.334,53.334 C 53.334,-23.878 29.456,0 0,0 m 0,-3 c 27.754,0 50.334,-22.579 50.334,-50.333 0,-27.754 -22.58,-50.334 -50.334,-50.334 -27.754,0 -50.333,22.58 -50.333,50.334 C -50.333,-25.579 -27.754,-3 0,-3" /></g><path
           id="path122"
           style="fill:#028ac9;fill-opacity:1;fill-rule:nonzero;stroke:none"
           d="m 580.121,206.652 h -42.002 v -28.221 h 42.002 z m -0.699,-27.521 h -40.604 v 26.823 h 40.604 z" /><g
           transform="translate(539.3008,201.0078)"
           id="g124"><path
             id="path126"
             style="fill:#00A0EA;fill-opacity:1;fill-rule:evenodd;stroke:none"
             d="m 0,0 c -2.896,0 -5.251,2.356 -5.251,5.251 0,2.895 2.355,5.251 5.251,5.251 h 39.901 c 2.895,0 5.25,-2.356 5.25,-5.251 C 45.151,2.356 42.796,0 39.901,0 Z" /></g><g
           transform="translate(579.2021,212.5596)"
           id="g128"><path
             id="path130"
             style="fill:#028ac9;fill-opacity:1;fill-rule:nonzero;stroke:none"
             d="m 0,0 h -39.901 c -3.481,0 -6.301,-2.821 -6.301,-6.301 0,-3.478 2.82,-6.301 6.301,-6.301 H 0 c 3.479,0 6.3,2.823 6.3,6.301 C 6.3,-2.821 3.479,0 0,0 m 0,-2.101 c 2.316,0 4.199,-1.884 4.199,-4.2 0,-2.316 -1.883,-4.2 -4.199,-4.2 h -39.901 c -2.318,0 -4.201,1.884 -4.201,4.2 0,2.316 1.883,4.2 4.201,4.2 H 0" /></g><g
           transform="translate(540.3506,204.1582)"
           id="g132"><path
             id="path134"
             style="fill:#028ac9;fill-opacity:1;fill-rule:evenodd;stroke:none"
             d="M 0,0 C -1.16,0 -2.1,0.941 -2.1,2.101 -2.1,3.26 -1.16,4.2 0,4.2 1.16,4.2 2.101,3.26 2.101,2.101 2.101,0.941 1.16,0 0,0 M 5.25,2.101 C 4.67,2.101 4.199,2.57 4.199,3.15 4.199,3.731 4.67,4.2 5.25,4.2 5.829,4.2 6.301,3.731 6.301,3.15 6.301,2.57 5.829,2.101 5.25,2.101 m 4.2,0 C 8.87,2.101 8.4,2.57 8.4,3.15 8.4,3.731 8.87,4.2 9.45,4.2 10.029,4.2 10.5,3.731 10.5,3.15 10.5,2.57 10.029,2.101 9.45,2.101" /></g><path
           id="path136"
           style="fill:#028ac9;fill-opacity:1;fill-rule:evenodd;stroke:none"
           d="m 560.345,208.358 h 1.05 v -1.05 h -1.05 z m 0,-2.099 h 1.05 v -1.051 h -1.05 z m 2.1,2.099 h 1.05 v -1.05 h -1.05 z m 0,-2.099 h 1.05 v -1.051 h -1.05 z m 2.1,2.099 h 1.05 v -1.05 h -1.05 z m 0,-2.099 h 1.05 v -1.051 h -1.05 z m 2.101,2.099 h 1.051 v -1.05 h -1.051 z m 0,-2.099 h 1.051 v -1.051 h -1.051 z m 2.1,2.099 h 1.049 v -1.05 h -1.049 z m 0,-2.099 h 1.049 v -1.051 h -1.049 z m 2.1,2.099 h 1.05 v -1.05 h -1.05 z m 0,-2.099 h 1.05 v -1.051 h -1.05 z m 2.099,2.099 h 1.05 v -1.05 h -1.05 z m 0,-2.099 h 1.05 v -1.051 h -1.05 z m 2.101,2.099 h 1.05 v -1.05 h -1.05 z m 0,-2.099 h 1.05 v -1.051 h -1.05 z m 2.1,2.099 h 1.05 v -1.05 h -1.05 z m 0,-2.099 h 1.05 v -1.051 h -1.05 z" /><g
           transform="translate(539.3008,187.3564)"
           id="g138"><path
             id="path140"
             style="fill:#00A0EA;fill-opacity:1;fill-rule:evenodd;stroke:none"
             d="m 0,0 c -2.896,0 -5.251,2.355 -5.251,5.251 0,2.895 2.355,5.251 5.251,5.251 h 39.901 c 2.895,0 5.25,-2.356 5.25,-5.251 C 45.151,2.355 42.796,0 39.901,0 Z" /></g><g
           transform="translate(579.2021,198.9082)"
           id="g142"><path
             id="path144"
             style="fill:#028ac9;fill-opacity:1;fill-rule:nonzero;stroke:none"
             d="m 0,0 h -39.901 c -3.481,0 -6.301,-2.821 -6.301,-6.301 0,-3.48 2.82,-6.301 6.301,-6.301 H 0 c 3.479,0 6.3,2.821 6.3,6.301 C 6.3,-2.821 3.479,0 0,0 m 0,-2.102 c 2.316,0 4.199,-1.883 4.199,-4.199 0,-2.316 -1.883,-4.201 -4.199,-4.201 h -39.901 c -2.318,0 -4.201,1.885 -4.201,4.201 0,2.316 1.883,4.199 4.201,4.199 H 0" /></g><g
           transform="translate(540.3506,190.5068)"
           id="g146"><path
             id="path148"
             style="fill:#028ac9;fill-opacity:1;fill-rule:evenodd;stroke:none"
             d="M 0,0 C -1.16,0 -2.1,0.94 -2.1,2.101 -2.1,3.261 -1.16,4.2 0,4.2 1.16,4.2 2.101,3.261 2.101,2.101 2.101,0.94 1.16,0 0,0 M 5.25,2.101 C 4.67,2.101 4.199,2.57 4.199,3.151 4.199,3.73 4.67,4.2 5.25,4.2 5.829,4.2 6.301,3.73 6.301,3.151 6.301,2.57 5.829,2.101 5.25,2.101 m 4.2,0 C 8.87,2.101 8.4,2.57 8.4,3.151 8.4,3.73 8.87,4.2 9.45,4.2 10.029,4.2 10.5,3.73 10.5,3.151 10.5,2.57 10.029,2.101 9.45,2.101" /></g><path
           id="path150"
           style="fill:#028ac9;fill-opacity:1;fill-rule:evenodd;stroke:none"
           d="m 560.345,194.707 h 1.05 v -1.05 h -1.05 z m 0,-2.101 h 1.05 v -1.05 h -1.05 z m 2.1,2.101 h 1.05 v -1.05 h -1.05 z m 0,-2.101 h 1.05 v -1.05 h -1.05 z m 2.1,2.101 h 1.05 v -1.05 h -1.05 z m 0,-2.101 h 1.05 v -1.05 h -1.05 z m 2.101,2.101 h 1.051 v -1.05 h -1.051 z m 0,-2.101 h 1.051 v -1.05 h -1.051 z m 2.1,2.101 h 1.049 v -1.05 h -1.049 z m 0,-2.101 h 1.049 v -1.05 h -1.049 z m 2.1,2.101 h 1.05 v -1.05 h -1.05 z m 0,-2.101 h 1.05 v -1.05 h -1.05 z m 2.099,2.101 h 1.05 v -1.05 h -1.05 z m 0,-2.101 h 1.05 v -1.05 h -1.05 z m 2.101,2.101 h 1.05 v -1.05 h -1.05 z m 0,-2.101 h 1.05 v -1.05 h -1.05 z m 2.1,2.101 h 1.05 v -1.05 h -1.05 z m 0,-2.101 h 1.05 v -1.05 h -1.05 z" /><g
           transform="translate(539.3008,173.707)"
           id="g152"><path
             id="path154"
             style="fill:#00A0EA;fill-opacity:1;fill-rule:evenodd;stroke:none"
             d="m 0,0 c -2.896,0 -5.251,2.354 -5.251,5.25 0,2.895 2.355,5.25 5.251,5.25 h 39.901 c 2.895,0 5.25,-2.355 5.25,-5.25 C 45.151,2.354 42.796,0 39.901,0 Z" /></g><g
           transform="translate(579.2021,185.2568)"
           id="g156"><path
             id="path158"
             style="fill:#028ac9;fill-opacity:1;fill-rule:nonzero;stroke:none"
             d="m 0,0 h -39.901 c -3.481,0 -6.301,-2.82 -6.301,-6.3 0,-3.479 2.82,-6.302 6.301,-6.302 H 0 c 3.479,0 6.3,2.823 6.3,6.302 C 6.3,-2.82 3.479,0 0,0 m 0,-2.1 c 2.316,0 4.199,-1.884 4.199,-4.2 0,-2.316 -1.883,-4.2 -4.199,-4.2 h -39.901 c -2.318,0 -4.201,1.884 -4.201,4.2 0,2.316 1.883,4.2 4.201,4.2 L 0,-2.1" /></g><g
           transform="translate(540.3506,176.8564)"
           id="g160"><path
             id="path162"
             style="fill:#028ac9;fill-opacity:1;fill-rule:evenodd;stroke:none"
             d="M 0,0 C -1.16,0 -2.1,0.94 -2.1,2.101 -2.1,3.261 -1.16,4.2 0,4.2 1.16,4.2 2.101,3.261 2.101,2.101 2.101,0.94 1.16,0 0,0 M 5.25,2.101 C 4.67,2.101 4.199,2.569 4.199,3.15 4.199,3.73 4.67,4.2 5.25,4.2 5.829,4.2 6.301,3.73 6.301,3.15 6.301,2.569 5.829,2.101 5.25,2.101 m 4.2,0 C 8.87,2.101 8.4,2.569 8.4,3.15 8.4,3.73 8.87,4.2 9.45,4.2 10.029,4.2 10.5,3.73 10.5,3.15 10.5,2.569 10.029,2.101 9.45,2.101" /></g><path
           id="path164"
           style="fill:#028ac9;fill-opacity:1;fill-rule:evenodd;stroke:none"
           d="m 560.345,181.057 h 1.05 v -1.05 h -1.05 z m 0,-2.101 h 1.05 v -1.05 h -1.05 z m 2.1,2.101 h 1.05 v -1.05 h -1.05 z m 0,-2.101 h 1.05 v -1.05 h -1.05 z m 2.1,2.101 h 1.05 v -1.05 h -1.05 z m 0,-2.101 h 1.05 v -1.05 h -1.05 z m 2.101,2.101 h 1.051 v -1.05 h -1.051 z m 0,-2.101 h 1.051 v -1.05 h -1.051 z m 2.1,2.101 h 1.049 v -1.05 h -1.049 z m 0,-2.101 h 1.049 v -1.05 h -1.049 z m 2.1,2.101 h 1.05 v -1.05 h -1.05 z m 0,-2.101 h 1.05 v -1.05 h -1.05 z m 2.099,2.101 h 1.05 v -1.05 h -1.05 z m 0,-2.101 h 1.05 v -1.05 h -1.05 z m 2.101,2.101 h 1.05 v -1.05 h -1.05 z m 0,-2.101 h 1.05 v -1.05 h -1.05 z m 2.1,2.101 h 1.05 v -1.05 h -1.05 z m 0,-2.101 h 1.05 v -1.05 h -1.05 z" /><g
           transform="translate(567.5205,161.1064)"
           id="g166"><path
             id="path168"
             style="fill:#028ac9;fill-opacity:1;fill-rule:evenodd;stroke:none"
             d="m 0,0 h -15.751 v 3.151 h 6.3 V 7.35 H -6.3 V 3.151 H 0 Z" /></g><path
           id="path170"
           style="fill:#028ac9;fill-opacity:1;fill-rule:nonzero;stroke:none"
           d="m 540.612,162.156 h -2.101 v 1.05 h 2.101 z" /><path
           id="path172"
           style="fill:#028ac9;fill-opacity:1;fill-rule:nonzero;stroke:none"
           d="m 547.381,162.156 h -4.513 v 1.05 h 4.513 z m 6.767,0 h -4.513 v 1.05 h 4.513 z m 6.768,0 h -4.512 v 1.05 h 4.512 z m 6.769,0 h -4.513 v 1.05 h 4.513 z m 6.768,0 h -4.514 v 1.05 h 4.514 z" /><path
           id="path174"
           style="fill:#028ac9;fill-opacity:1;fill-rule:nonzero;stroke:none"
           d="m 578.809,162.156 h -2.101 v 1.05 h 2.101 z" /><path
           id="path176"
           style="fill:#028ac9;fill-opacity:1;fill-rule:nonzero;stroke:none"
           d="m 560.17,169.508 h -1.051 v 4.199 h 1.051 z m 0,-6.302 h -1.051 v 4.201 h 1.051 z" /><g
           transform="translate(539.666,410.8325)"
           id="g178"><path
             id="path180"
             style="fill:#00A0EA;fill-opacity:1;fill-rule:evenodd;stroke:none"
             d="M 0,0 C -34.463,0 -62.5,28.038 -62.5,62.5 -62.5,96.962 -34.463,125 0,125 34.463,125 62.5,96.962 62.5,62.5 62.5,28.038 34.463,0 0,0" /></g><g
           transform="translate(539.666,537.3325)"
           id="g182"><path
             id="path184"
             style="fill:#028ac9;fill-opacity:1;fill-rule:nonzero;stroke:none"
             d="m 0,0 c -35.347,0 -64,-28.654 -64,-64 0,-35.346 28.653,-64 64,-64 35.346,0 64,28.654 64,64 C 64,-28.654 35.346,0 0,0 m 0,-3 c 33.636,0 61,-27.364 61,-61 0,-33.636 -27.364,-61 -61,-61 -33.636,0 -61,27.364 -61,61 0,33.636 27.364,61 61,61" /></g><g
           transform="translate(361.666,64.5)"
           id="g186"><path
             id="path188"
             style="fill:#00A0EA;fill-opacity:1;fill-rule:nonzero;stroke:none"
             d="M 0,0 C -15.163,0 -27.499,12.337 -27.499,27.5 -27.499,42.663 -15.163,55 0,55 15.163,55 27.5,42.663 27.5,27.5 27.5,12.337 15.163,0 0,0" /></g><g
           transform="translate(361.666,121)"
           id="g190"><path
             id="path192"
             style="fill:#028ac9;fill-opacity:1;fill-rule:nonzero;stroke:none"
             d="m 0,0 c -16.016,0 -29,-12.983 -29,-29 0,-16.016 12.984,-29 29,-29 16.017,0 29,12.984 29,29 C 29,-12.983 16.017,0 0,0 m 0,-3 c 14.337,0 26,-11.663 26,-26 0,-14.337 -11.663,-26 -26,-26 -14.336,0 -26,11.663 -26,26 0,14.337 11.664,26 26,26" /></g><g
           transform="translate(352.2656,86.75)"
           id="g194"><path
             id="path196"
             style="fill:#00A0EA;fill-opacity:1;fill-rule:nonzero;stroke:none"
             d="m 0,0 c -2.799,0 -5.075,2.276 -5.075,5.075 0,2.48 1.765,4.581 4.197,4.996 l 0.756,0.129 0.071,0.763 c 0.216,2.279 2.1,3.998 4.382,3.998 0.711,0 1.389,-0.163 2.013,-0.486 l 0.786,-0.406 0.499,0.73 c 1.345,1.97 3.565,3.145 5.938,3.145 3.966,0 7.193,-3.226 7.193,-7.192 0,-0.286 -0.023,-0.579 -0.062,-0.892 L 20.63,9.316 21.051,8.967 C 22.229,7.987 22.877,6.605 22.877,5.075 22.877,2.276 20.601,0 17.802,0 Z" /></g><g
           transform="translate(365.833,105.6943)"
           id="g198"><path
             id="path200"
             style="fill:#028ac9;fill-opacity:1;fill-rule:nonzero;stroke:none"
             d="m 0,0 c -2.706,0 -5.246,-1.358 -6.765,-3.581 -0.761,0.393 -1.605,0.598 -2.471,0.598 -2.803,0 -5.117,-2.148 -5.377,-4.905 -2.902,-0.495 -5.03,-2.982 -5.03,-5.981 0,-3.35 2.727,-6.075 6.076,-6.075 H 4.234 c 3.35,0 6.076,2.725 6.076,6.075 0,1.821 -0.792,3.501 -2.187,4.66 0.045,0.356 0.069,0.69 0.069,1.017 C 8.192,-3.676 4.517,0 0,0 m 0,-2 c 3.414,0 6.192,-2.778 6.192,-6.192 0,-0.23 -0.017,-0.481 -0.053,-0.767 l -0.137,-1.087 0.843,-0.701 c 0.944,-0.785 1.465,-1.894 1.465,-3.122 0,-2.247 -1.829,-4.075 -4.076,-4.075 h -17.801 c -2.247,0 -4.076,1.828 -4.076,4.075 0,1.99 1.415,3.677 3.367,4.01 l 1.509,0.257 0.145,1.526 c 0.167,1.764 1.622,3.093 3.386,3.093 0.549,0 1.072,-0.126 1.553,-0.375 l 1.572,-0.812 0.998,1.461 C -3.954,-3.013 -2.043,-2 0,-2" /></g><g
           transform="translate(359.1914,90.6992)"
           id="g202"><path
             id="path204"
             style="fill:#00A0EA;fill-opacity:1;fill-rule:evenodd;stroke:none"
             d="m 0,0 v -8.062 h -2.754 l 5.32,-7.31 5.322,7.31 H 5.134 V 0 Z" /></g><g
           transform="translate(357.4199,82.1377)"
           id="g206"><path
             id="path208"
             style="fill:#028ac9;fill-opacity:1;fill-rule:nonzero;stroke:none"
             d="M 0,0 4.338,-5.961 8.677,0 H 6.405 V 8.062 H 2.271 V 0 Z M 4.338,-7.66 -1.965,1 H 1.271 V 9.062 H 7.405 V 1 h 3.237 z" /></g><g
           transform="translate(92.5,130.168)"
           id="g210"><path
             id="path212"
             style="fill:#00A0EA;fill-opacity:1;fill-rule:nonzero;stroke:none"
             d="m 0,0 c -20.586,0 -37.333,16.747 -37.333,37.333 0,20.586 16.747,37.333 37.333,37.333 20.585,0 37.333,-16.747 37.333,-37.333 C 37.333,16.747 20.585,0 0,0" /></g><g
           transform="translate(92.5,206.334)"
           id="g214"><path
             id="path216"
             style="fill:#028ac9;fill-opacity:1;fill-rule:nonzero;stroke:none"
             d="m 0,0 c -21.447,0 -38.833,-17.386 -38.833,-38.833 0,-21.447 17.386,-38.833 38.833,-38.833 21.447,0 38.833,17.386 38.833,38.833 C 38.833,-17.386 21.447,0 0,0 m 0,-3 c 19.758,0 35.833,-16.074 35.833,-35.833 0,-19.759 -16.075,-35.833 -35.833,-35.833 -19.759,0 -35.833,16.074 -35.833,35.833 C -35.833,-19.074 -19.759,-3 0,-3" /></g><g
           transform="translate(104.2559,190.7314)"
           id="g218"><path
             id="path220"
             style="fill:#028ac9;fill-opacity:1;fill-rule:nonzero;stroke:none"
             d="m 0,0 h -23.178 c -1.28,0 -2.318,-1.037 -2.318,-2.318 v -42.494 c 0,-1.279 1.038,-2.315 2.318,-2.315 H 0 c 1.28,0 2.318,1.036 2.318,2.315 V -2.318 C 2.318,-1.037 1.28,0 0,0 m 0,-1.545 c 0.426,0 0.772,-0.346 0.772,-0.773 v -42.494 c 0,-0.424 -0.346,-0.77 -0.772,-0.77 h -23.178 c -0.426,0 -0.772,0.346 -0.772,0.77 v 42.494 c 0,0.427 0.346,0.773 0.772,0.773 H 0" /></g><path
           id="path222"
           style="fill:#028ac9;fill-opacity:1;fill-rule:evenodd;stroke:none"
           d="M 105.801,183.135 H 79.662 v 0.644 h 26.139 z" /><path
           id="path224"
           style="fill:#028ac9;fill-opacity:1;fill-rule:evenodd;stroke:none"
           d="m 79.404,151.329 h 26.269 v -0.645 H 79.404 Z" /><path
           id="path226"
           style="fill:#028ac9;fill-opacity:1;fill-rule:evenodd;stroke:none"
           d="M 101.423,147.466 H 84.039 v 0.772 h 17.384 z" /><g
           transform="translate(102.8398,186.5469)"
           id="g228"><path
             id="path230"
             style="fill:#028ac9;fill-opacity:1;fill-rule:evenodd;stroke:none"
             d="m 0,0 c 0,-0.676 -0.548,-1.224 -1.223,-1.224 -0.676,0 -1.224,0.548 -1.224,1.224 0,0.675 0.548,1.224 1.224,1.224 C -0.548,1.224 0,0.675 0,0" /></g><path
           id="path232"
           style="fill:#028ac9;fill-opacity:1;fill-rule:evenodd;stroke:none"
           d="m 82.575,187.642 h 0.772 v -0.773 h -0.772 z m 0,-1.546 h 0.772 v -0.772 h -0.772 z m 1.545,1.546 h 0.773 v -0.773 H 84.12 Z m 0,-1.546 h 0.773 v -0.772 H 84.12 Z m 1.546,1.546 h 0.772 v -0.773 h -0.772 z m 0,-1.546 h 0.772 v -0.772 h -0.772 z m 1.544,1.546 h 0.773 v -0.773 H 87.21 Z m 0,-1.546 h 0.773 v -0.772 H 87.21 Z m 1.546,1.546 h 0.772 v -0.773 h -0.772 z m 0,-1.546 h 0.772 v -0.772 h -0.772 z m 1.545,1.546 h 0.773 v -0.773 h -0.773 z m 0,-1.546 h 0.773 v -0.772 h -0.773 z m 1.545,1.546 h 0.772 v -0.773 h -0.772 z m 0,-1.546 h 0.772 v -0.772 h -0.772 z m 1.546,1.546 h 0.772 v -0.773 h -0.772 z m 0,-1.546 h 0.772 v -0.772 h -0.772 z m 1.545,1.546 h 0.772 v -0.773 h -0.772 z m 0,-1.546 h 0.772 v -0.772 h -0.772 z m 1.545,1.546 h 0.772 v -0.773 h -0.772 z m 0,-1.546 h 0.772 v -0.772 h -0.772 z" /><g
           transform="translate(539.499,410.1509)"
           id="g234"><path
             id="path236"
             style="fill:#00A0EA;fill-opacity:1;fill-rule:nonzero;stroke:none"
             d="m 0,0 c -34.737,0 -62.999,28.262 -62.999,63 0,34.738 28.262,63 62.999,63 C 34.739,126 63.001,97.738 63.001,63 63.001,28.262 34.739,0 0,0" /></g><g
           transform="translate(539.499,537.6509)"
           id="g238"><path
             id="path240"
             style="fill:#028ac9;fill-opacity:1;fill-rule:nonzero;stroke:none"
             d="m 0,0 c -35.621,0 -64.499,-28.877 -64.499,-64.5 0,-35.623 28.878,-64.5 64.499,-64.5 35.622,0 64.501,28.877 64.501,64.5 C 64.501,-28.877 35.622,0 0,0 M 0,-3 C 33.912,-3 61.501,-30.589 61.501,-64.5 61.501,-98.411 33.912,-126 0,-126 c -33.911,0 -61.499,27.589 -61.499,61.5 0,33.911 27.588,61.5 61.499,61.5" /></g><g
           transform="translate(524.5811,511.3394)"
           id="g242"><path
             id="path244"
             style="fill:#028ac9;fill-opacity:1;fill-rule:nonzero;stroke:none"
             d="m 0,0 c -0.171,0 -0.341,-0.002 -0.514,-0.006 h -0.023 l -0.024,-0.001 c -4.266,-0.21 -7.727,-1.804 -10.29,-4.74 -6.718,-7.699 -5.403,-22.821 -4.697,-30.944 0.15,-1.725 0.279,-3.213 0.279,-4.085 0,-5.089 7.946,-5.677 13.921,-5.677 7.166,0 14.687,1.027 15.003,1.07 l 1.254,0.174 0.294,1.231 c 0.25,1.056 6.045,26.009 -2.951,37.393 C 9.323,-1.879 5.201,0 0,0 m 0,-1.85 c 23.073,0 13.403,-40.7 13.403,-40.7 0,0 -7.629,-1.053 -14.751,-1.053 -6.229,0 -12.071,0.806 -12.071,3.827 0,6.474 -5.92,36.996 12.948,37.921 0.159,0.003 0.315,0.005 0.471,0.005" /></g><g
           transform="translate(500.1211,460.0024)"
           id="g246"><path
             id="path248"
             style="fill:#00A0EA;fill-opacity:1;fill-rule:evenodd;stroke:none"
             d="m 0,0 c 0.232,1.995 1.37,6.839 6.908,10.315 3.15,1.977 5.873,2.789 8.062,3.444 2.951,0.88 5.281,1.575 5.32,4.727 0.02,1.641 -0.622,2.573 -1.511,3.861 -0.573,0.832 -1.287,1.867 -2.119,3.473 -0.982,1.895 -5.537,11.658 1.262,17.851 1.81,1.65 4.281,2.559 6.954,2.559 3.727,0 7.143,-1.779 9.14,-4.76 3.15,-4.7 0.59,-13.308 -0.173,-14.707 -1.104,-2.019 -1.995,-3.298 -2.646,-4.231 -1.019,-1.462 -1.635,-2.345 -1.658,-4.021 -0.059,-4.096 3.782,-5.356 7.849,-6.688 2.56,-0.839 5.209,-1.707 7.314,-3.31 C 47.647,6.271 48.578,1.937 48.854,0 Z" /></g><g
           transform="translate(524.9971,507.1572)"
           id="g250"><path
             id="path252"
             style="fill:#028ac9;fill-opacity:1;fill-rule:nonzero;stroke:none"
             d="m 0,0 c -2.794,0 -5.54,-0.943 -7.577,-2.8 -6.399,-5.829 -3.591,-14.85 -1.46,-18.96 2.144,-4.135 3.553,-4.65 3.526,-6.897 -0.053,-4.344 -5.398,-2.659 -12.949,-7.399 -7.551,-4.74 -7.398,-12.024 -7.398,-12.024 h 50.869 c 0,0 -0.381,6.943 -4.625,10.174 -5.631,4.287 -14.879,3.593 -14.798,9.249 0.033,2.353 1.425,2.762 4.19,7.822 0.762,1.395 3.594,10.497 0.13,15.665 C 7.582,-1.697 3.748,0 0,0 m 0,0 v -1.85 c 3.417,0 6.547,-1.625 8.372,-4.349 2.909,-4.342 0.411,-12.599 -0.217,-13.749 -1.079,-1.975 -1.919,-3.178 -2.593,-4.146 -1.042,-1.496 -1.796,-2.577 -1.824,-4.537 -0.068,-4.777 4.476,-6.266 8.486,-7.579 2.488,-0.816 5.06,-1.66 7.042,-3.168 2.244,-1.708 3.211,-4.822 3.618,-6.852 h -46.663 c 0.471,2.168 1.913,5.851 6.303,8.607 3.042,1.91 5.7,2.703 7.834,3.34 2.917,0.87 5.934,1.771 5.981,5.603 0.023,1.935 -0.764,3.076 -1.674,4.397 -0.559,0.811 -1.254,1.819 -2.061,3.375 -0.927,1.788 -5.234,11.003 1.064,16.741 1.641,1.495 3.89,2.317 6.332,2.317 L 0,0" /></g><g
           transform="translate(525.0176,465.9253)"
           id="g254"><path
             id="path256"
             style="fill:#028ac9;fill-opacity:1;fill-rule:nonzero;stroke:none"
             d="M 0,0 -0.208,0.105 C -4.517,2.286 -7.33,4.341 -10.05,6.329 l -0.401,0.293 0.59,0.807 0.401,-0.293 C -6.816,5.205 -4.085,3.208 0.035,1.104 4.004,2.833 6.382,4.792 8.909,7.375 L 9.624,6.676 C 7.039,4.034 4.45,1.903 0.214,0.092 Z" /></g><g
           transform="translate(524.1777,495.6719)"
           id="g258"><path
             id="path260"
             style="fill:#028ac9;fill-opacity:1;fill-rule:nonzero;stroke:none"
             d="m 0,0 c -5.919,0 -9.231,0.79 -9.436,0.841 l 0.239,0.971 C -9.122,1.794 -1.63,0.015 10.96,1.821 l 0.143,-0.99 C 6.761,0.208 3.037,0 0,0" /></g><g
           transform="translate(523.0937,447.0537)"
           id="g262"><path
             id="path264"
             style="fill:#00A0EA;fill-opacity:1;fill-rule:evenodd;stroke:none"
             d="m 0,0 0.192,1.557 c 0.37,3.012 1.9,10.438 8.064,14.308 3.478,2.182 6.042,2.79 7.914,3.235 2.264,0.536 2.857,0.757 2.868,2.696 0.013,2.227 -0.425,2.638 -1.087,3.261 -0.825,0.777 -1.555,1.61 -2.123,3.969 l -0.139,0.567 c -1.199,4.918 -3.694,15.146 2.863,20.216 2.277,1.759 5.165,2.729 8.13,2.729 4.153,0 7.806,-1.899 10.023,-5.208 2.824,-4.213 1.673,-11.9 0.563,-17.316 -0.091,-0.439 -0.158,-0.765 -0.187,-0.953 -0.376,-2.516 -1.245,-3.63 -1.88,-4.444 -0.621,-0.795 -0.995,-1.275 -0.682,-2.726 0.627,-2.909 2.785,-3.803 6.252,-5.022 2.179,-0.767 4.641,-1.633 6.959,-3.398 3.411,-2.598 4.064,-8.664 4.151,-12.048 L 51.917,0 Z" /></g><g
           transform="translate(549.7754,500.9785)"
           id="g266"><path
             id="path268"
             style="fill:#00A0EA;fill-opacity:1;fill-rule:nonzero;stroke:none"
             d="m 0,0 c -3.271,0 -6.459,-1.072 -8.978,-3.018 -7.27,-5.621 -4.63,-16.441 -3.363,-21.641 l 0.14,-0.57 c 0.656,-2.722 1.565,-3.751 2.518,-4.648 0.482,-0.453 0.661,-0.622 0.652,-2.244 -0.004,-0.65 -0.115,-0.852 -0.117,-0.854 -0.179,-0.144 -1.085,-0.359 -1.684,-0.501 -1.856,-0.44 -4.658,-1.105 -8.331,-3.409 -6.669,-4.186 -8.309,-12.104 -8.704,-15.313 l -0.384,-3.114 h 3.138 48.925 2.845 l -0.072,2.845 c -0.092,3.634 -0.825,10.169 -4.696,13.116 -2.493,1.898 -5.175,2.842 -7.331,3.601 -3.537,1.243 -4.912,1.909 -5.365,4.007 -0.175,0.819 -0.13,0.877 0.42,1.582 0.688,0.882 1.729,2.216 2.159,5.097 0.026,0.164 0.089,0.467 0.172,0.874 1.161,5.661 2.346,13.722 -0.767,18.367 C 8.698,-2.123 4.623,0 0,0 m 0,-2.774 c 3.682,0 6.916,-1.674 8.871,-4.594 2.827,-4.217 0.967,-13.284 0.356,-16.264 -0.097,-0.47 -0.167,-0.821 -0.199,-1.021 -0.323,-2.16 -1.003,-3.033 -1.602,-3.801 -0.686,-0.878 -1.395,-1.787 -0.945,-3.873 0.823,-3.813 3.896,-4.895 7.15,-6.038 2.076,-0.731 4.43,-1.558 6.577,-3.193 3.091,-2.354 3.544,-8.634 3.604,-10.979 h -48.925 c 0.318,2.581 1.699,9.707 7.426,13.302 3.282,2.06 5.716,2.638 7.495,3.059 2.188,0.52 3.918,0.931 3.935,4.039 0.016,2.635 -0.593,3.405 -1.523,4.28 -0.594,0.558 -1.207,1.134 -1.726,3.283 l -0.138,0.569 c -1.129,4.633 -3.483,14.272 2.363,18.792 2.035,1.572 4.621,2.439 7.281,2.439" /></g><g
           transform="translate(549.7754,499.1289)"
           id="g270"><path
             id="path272"
             style="fill:#028ac9;fill-opacity:1;fill-rule:nonzero;stroke:none"
             d="m 0,0 c -2.813,0 -5.633,-0.921 -7.847,-2.632 -6.583,-5.09 -3.642,-15.809 -2.557,-20.309 1.219,-5.059 3.25,-2.691 3.222,-7.341 -0.025,-4.345 -3.446,-1.581 -10.997,-6.32 -7.55,-4.74 -7.948,-15.011 -7.948,-15.011 h 50.869 c 0,0 0.27,9.409 -3.974,12.641 -5.631,4.287 -12.19,3.159 -13.382,8.69 -0.706,3.278 1.827,2.467 2.557,7.341 0.237,1.572 3.161,12.77 -0.303,17.938 C 7.34,-1.57 3.674,0.001 0,0 m 0,-1.85 v 0 c 3.368,0 6.321,-1.525 8.104,-4.183 2.611,-3.896 0.809,-12.677 0.216,-15.563 -0.101,-0.493 -0.174,-0.86 -0.206,-1.071 -0.288,-1.919 -0.862,-2.657 -1.418,-3.368 -0.739,-0.949 -1.66,-2.128 -1.119,-4.637 0.932,-4.32 4.397,-5.538 7.747,-6.716 2.111,-0.742 4.292,-1.509 6.322,-3.055 2.295,-1.747 3.04,-6.359 3.209,-9.32 h -46.897 c 0.513,2.963 2.089,8.608 6.847,11.594 3.152,1.979 5.501,2.536 7.216,2.943 2.168,0.515 4.625,1.098 4.647,4.933 0.018,2.997 -0.775,3.982 -1.815,4.96 -0.517,0.485 -1.005,0.945 -1.458,2.826 l -0.14,0.571 c -1.085,4.443 -3.341,13.688 2.029,17.841 1.875,1.448 4.26,2.245 6.716,2.245" /></g><g
           transform="translate(549.6553,461.9648)"
           id="g274"><path
             id="path276"
             style="fill:#028ac9;fill-opacity:1;fill-rule:nonzero;stroke:none"
             d="m 0,0 c -4.163,0 -7.208,2.884 -7.253,2.928 l 0.644,0.664 c 0.253,-0.245 6.297,-5.938 12.88,0.011 L 6.891,2.917 C 4.471,0.73 2.094,0 0,0" /></g><g
           transform="translate(549.5068,459.5317)"
           id="g278"><path
             id="path280"
             style="fill:#028ac9;fill-opacity:1;fill-rule:nonzero;stroke:none"
             d="m 0,0 c -5.381,0 -9.118,3.934 -9.175,3.994 l 0.679,0.629 C -8.18,4.283 -0.635,-3.624 8.471,4.651 L 9.092,3.966 C 5.819,0.993 2.703,0 0,0" /></g><g
           transform="translate(541.0127,486.2842)"
           id="g282"><path
             id="path284"
             style="fill:#028ac9;fill-opacity:1;fill-rule:nonzero;stroke:none"
             d="m 0,0 c -1.157,0 -1.871,0.14 -1.896,0.146 l 0.19,0.904 c 0.079,-0.016 7.853,-1.521 13.849,6.151 l 0.422,0.541 0.342,-0.595 c 2.251,-3.91 5.021,-4.009 5.808,-3.743 l 0.3,-0.874 C 18.01,2.185 14.968,2.212 12.453,6.115 8.017,0.796 2.755,0 0,0" /></g></g></g></g></svg>